$MeshFormat
4.1 0 8
$EndMeshFormat
$Entities
4 4 1 0
1 0 0 0 0 
2 2 0 0 0 
3 0 25 0 0 
4 2 25 0 0 
1 0 0 0 2 0 0 1 9 2 1 -2 
2 0 25 0 2 25 0 1 7 2 3 -4 
3 0 0 0 0 25 0 1 10 2 1 -3 
4 2 0 0 2 25 0 1 8 2 2 -4 
5 0 0 0 2 25 0 1 6 4 1 4 -2 -3 
$EndEntities
$Nodes
9 1060 1 1060
0 1 0 1
1
0 0 0
0 2 0 1
2
2 0 0
0 3 0 1
3
0 25 0
0 4 0 1
4
2 25 0
1 1 0 7
5
6
7
8
9
10
11
0.2499999999995476 0 0
0.4999999999988241 0 0
0.7499999999980952 0 0
0.999999999997388 0 0
1.249999999998025 0 0
1.499999999998683 0 0
1.749999999999342 0 0
1 2 0 7
12
13
14
15
16
17
18
0.2499999999995476 25 0
0.4999999999988241 25 0
0.7499999999980952 25 0
0.999999999997388 25 0
1.249999999998025 25 0
1.499999999998683 25 0
1.749999999999342 25 0
1 3 0 99
19
20
21
22
23
24
25
26
27
28
29
30
31
32
33
34
35
36
37
38
39
40
41
42
43
44
45
46
47
48
49
50
51
52
53
54
55
56
57
58
59
60
61
62
63
64
65
66
67
68
69
70
71
72
73
74
75
76
77
78
79
80
81
82
83
84
85
86
87
88
89
90
91
92
93
94
95
96
97
98
99
100
101
102
103
104
105
106
107
108
109
110
111
112
113
114
115
116
117
0 0.249999999999011 0
0 0.4999999999980388 0
0 0.7499999999970561 0
0 0.999999999996013 0
0 1.249999999994937 0
0 1.499999999993892 0
0 1.749999999992955 0
0 1.9999999999921 0
0 2.249999999991247 0
0 2.499999999990393 0
0 2.74999999998954 0
0 2.999999999988655 0
0 3.249999999987581 0
0 3.499999999986315 0
0 3.749999999985017 0
0 3.99999999998372 0
0 4.249999999982423 0
0 4.499999999981124 0
0 4.749999999979828 0
0 4.99999999997853 0
0 5.249999999977232 0
0 5.499999999975934 0
0 5.749999999974635 0
0 5.999999999973338 0
0 6.249999999972041 0
0 6.499999999970743 0
0 6.749999999969446 0
0 6.999999999968147 0
0 7.24999999996685 0
0 7.499999999965552 0
0 7.749999999964255 0
0 7.999999999963289 0
0 8.249999999962867 0
0 8.499999999962455 0
0 8.749999999962046 0
0 8.999999999961634 0
0 9.249999999961226 0
0 9.499999999960815 0
0 9.749999999960405 0
0 9.999999999959996 0
0 10.24999999995959 0
0 10.49999999995918 0
0 10.74999999995877 0
0 10.99999999995836 0
0 11.24999999995795 0
0 11.49999999995754 0
0 11.74999999995713 0
0 11.99999999995672 0
0 12.24999999995631 0
0 12.4999999999559 0
0 12.74999999995549 0
0 12.99999999995508 0
0 13.24999999995467 0
0 13.49999999995426 0
0 13.74999999995385 0
0 13.99999999995344 0
0 14.24999999995303 0
0 14.49999999995262 0
0 14.74999999995221 0
0 14.9999999999518 0
0 15.24999999995139 0
0 15.49999999995098 0
0 15.74999999995057 0
0 15.9999999999508 0
0 16.24999999995211 0
0 16.49999999995348 0
0 16.74999999995485 0
0 16.99999999995622 0
0 17.24999999995758 0
0 17.49999999995896 0
0 17.74999999996032 0
0 17.99999999996169 0
0 18.24999999996306 0
0 18.49999999996443 0
0 18.74999999996579 0
0 18.99999999996716 0
0 19.24999999996853 0
0 19.4999999999699 0
0 19.74999999997127 0
0 19.99999999997264 0
0 20.249999999974 0
0 20.49999999997537 0
0 20.74999999997674 0
0 20.99999999997811 0
0 21.24999999997948 0
0 21.49999999998084 0
0 21.74999999998221 0
0 21.99999999998358 0
0 22.24999999998495 0
0 22.49999999998632 0
0 22.74999999998769 0
0 22.99999999998905 0
0 23.24999999999042 0
0 23.49999999999179 0
0 23.74999999999316 0
0 23.99999999999452 0
0 24.24999999999589 0
0 24.49999999999726 0
0 24.74999999999863 0
1 4 0 99
118
119
120
121
122
123
124
125
126
127
128
129
130
131
132
133
134
135
136
137
138
139
140
141
142
143
144
145
146
147
148
149
150
151
152
153
154
155
156
157
158
159
160
161
162
163
164
165
166
167
168
169
170
171
172
173
174
175
176
177
178
179
180
181
182
183
184
185
186
187
188
189
190
191
192
193
194
195
196
197
198
199
200
201
202
203
204
205
206
207
208
209
210
211
212
213
214
215
216
2 0.249999999999011 0
2 0.4999999999980388 0
2 0.7499999999970561 0
2 0.999999999996013 0
2 1.249999999994937 0
2 1.499999999993892 0
2 1.749999999992955 0
2 1.9999999999921 0
2 2.249999999991247 0
2 2.499999999990393 0
2 2.74999999998954 0
2 2.999999999988655 0
2 3.249999999987581 0
2 3.499999999986315 0
2 3.749999999985017 0
2 3.99999999998372 0
2 4.249999999982423 0
2 4.499999999981124 0
2 4.749999999979828 0
2 4.99999999997853 0
2 5.249999999977232 0
2 5.499999999975934 0
2 5.749999999974635 0
2 5.999999999973338 0
2 6.249999999972041 0
2 6.499999999970743 0
2 6.749999999969446 0
2 6.999999999968147 0
2 7.24999999996685 0
2 7.499999999965552 0
2 7.749999999964255 0
2 7.999999999963289 0
2 8.249999999962867 0
2 8.499999999962455 0
2 8.749999999962046 0
2 8.999999999961634 0
2 9.249999999961226 0
2 9.499999999960815 0
2 9.749999999960405 0
2 9.999999999959996 0
2 10.24999999995959 0
2 10.49999999995918 0
2 10.74999999995877 0
2 10.99999999995836 0
2 11.24999999995795 0
2 11.49999999995754 0
2 11.74999999995713 0
2 11.99999999995672 0
2 12.24999999995631 0
2 12.4999999999559 0
2 12.74999999995549 0
2 12.99999999995508 0
2 13.24999999995467 0
2 13.49999999995426 0
2 13.74999999995385 0
2 13.99999999995344 0
2 14.24999999995303 0
2 14.49999999995262 0
2 14.74999999995221 0
2 14.9999999999518 0
2 15.24999999995139 0
2 15.49999999995098 0
2 15.74999999995057 0
2 15.9999999999508 0
2 16.24999999995211 0
2 16.49999999995348 0
2 16.74999999995485 0
2 16.99999999995622 0
2 17.24999999995758 0
2 17.49999999995896 0
2 17.74999999996032 0
2 17.99999999996169 0
2 18.24999999996306 0
2 18.49999999996443 0
2 18.74999999996579 0
2 18.99999999996716 0
2 19.24999999996853 0
2 19.4999999999699 0
2 19.74999999997127 0
2 19.99999999997264 0
2 20.249999999974 0
2 20.49999999997537 0
2 20.74999999997674 0
2 20.99999999997811 0
2 21.24999999997948 0
2 21.49999999998084 0
2 21.74999999998221 0
2 21.99999999998358 0
2 22.24999999998495 0
2 22.49999999998632 0
2 22.74999999998769 0
2 22.99999999998905 0
2 23.24999999999042 0
2 23.49999999999179 0
2 23.74999999999316 0
2 23.99999999999452 0
2 24.24999999999589 0
2 24.49999999999726 0
2 24.74999999999863 0
2 5 0 844
217
218
219
220
221
222
223
224
225
226
227
228
229
230
231
232
233
234
235
236
237
238
239
240
241
242
243
244
245
246
247
248
249
250
251
252
253
254
255
256
257
258
259
260
261
262
263
264
265
266
267
268
269
270
271
272
273
274
275
276
277
278
279
280
281
282
283
284
285
286
287
288
289
290
291
292
293
294
295
296
297
298
299
300
301
302
303
304
305
306
307
308
309
310
311
312
313
314
315
316
317
318
319
320
321
322
323
324
325
326
327
328
329
330
331
332
333
334
335
336
337
338
339
340
341
342
343
344
345
346
347
348
349
350
351
352
353
354
355
356
357
358
359
360
361
362
363
364
365
366
367
368
369
370
371
372
373
374
375
376
377
378
379
380
381
382
383
384
385
386
387
388
389
390
391
392
393
394
395
396
397
398
399
400
401
402
403
404
405
406
407
408
409
410
411
412
413
414
415
416
417
418
419
420
421
422
423
424
425
426
427
428
429
430
431
432
433
434
435
436
437
438
439
440
441
442
443
444
445
446
447
448
449
450
451
452
453
454
455
456
457
458
459
460
461
462
463
464
465
466
467
468
469
470
471
472
473
474
475
476
477
478
479
480
481
482
483
484
485
486
487
488
489
490
491
492
493
494
495
496
497
498
499
500
501
502
503
504
505
506
507
508
509
510
511
512
513
514
515
516
517
518
519
520
521
522
523
524
525
526
527
528
529
530
531
532
533
534
535
536
537
538
539
540
541
542
543
544
545
546
547
548
549
550
551
552
553
554
555
556
557
558
559
560
561
562
563
564
565
566
567
568
569
570
571
572
573
574
575
576
577
578
579
580
581
582
583
584
585
586
587
588
589
590
591
592
593
594
595
596
597
598
599
600
601
602
603
604
605
606
607
608
609
610
611
612
613
614
615
616
617
618
619
620
621
622
623
624
625
626
627
628
629
630
631
632
633
634
635
636
637
638
639
640
641
642
643
644
645
646
647
648
649
650
651
652
653
654
655
656
657
658
659
660
661
662
663
664
665
666
667
668
669
670
671
672
673
674
675
676
677
678
679
680
681
682
683
684
685
686
687
688
689
690
691
692
693
694
695
696
697
698
699
700
701
702
703
704
705
706
707
708
709
710
711
712
713
714
715
716
717
718
719
720
721
722
723
724
725
726
727
728
729
730
731
732
733
734
735
736
737
738
739
740
741
742
743
744
745
746
747
748
749
750
751
752
753
754
755
756
757
758
759
760
761
762
763
764
765
766
767
768
769
770
771
772
773
774
775
776
777
778
779
780
781
782
783
784
785
786
787
788
789
790
791
792
793
794
795
796
797
798
799
800
801
802
803
804
805
806
807
808
809
810
811
812
813
814
815
816
817
818
819
820
821
822
823
824
825
826
827
828
829
830
831
832
833
834
835
836
837
838
839
840
841
842
843
844
845
846
847
848
849
850
851
852
853
854
855
856
857
858
859
860
861
862
863
864
865
866
867
868
869
870
871
872
873
874
875
876
877
878
879
880
881
882
883
884
885
886
887
888
889
890
891
892
893
894
895
896
897
898
899
900
901
902
903
904
905
906
907
908
909
910
911
912
913
914
915
916
917
918
919
920
921
922
923
924
925
926
927
928
929
930
931
932
933
934
935
936
937
938
939
940
941
942
943
944
945
946
947
948
949
950
951
952
953
954
955
956
957
958
959
960
961
962
963
964
965
966
967
968
969
970
971
972
973
974
975
976
977
978
979
980
981
982
983
984
985
986
987
988
989
990
991
992
993
994
995
996
997
998
999
1000
1001
1002
1003
1004
1005
1006
1007
1008
1009
1010
1011
1012
1013
1014
1015
1016
1017
1018
1019
1020
1021
1022
1023
1024
1025
1026
1027
1028
1029
1030
1031
1032
1033
1034
1035
1036
1037
1038
1039
1040
1041
1042
1043
1044
1045
1046
1047
1048
1049
1050
1051
1052
1053
1054
1055
1056
1057
1058
1059
1060
1.783493650142907 4.374999999981774 0
1.783493650142907 5.624999999975286 0
0.2165063510589445 6.874999999968797 0
1.783493650142906 3.624999999985666 0
0.2182244624209258 7.634463795537448 0
0.2165063510591376 1.124999999995476 0
0.2165063510592206 2.874999999989099 0
1.777625918731057 1.873706074694111 0
0.2165063510597079 8.374999999962661 0
0.2180905418140856 11.86962037581588 0
0.2274582269288756 9.120299414133928 0
0.2165063510597137 13.37499999995445 0
1.793852822039969 15.37395312355669 0
0.2165063510597137 9.874999999960203 0
0.2165063510597137 10.62499999995898 0
1.783493650142138 12.6249999999557 0
0.2150982517343288 14.1268734252218 0
1.783493650141116 16.12499999995145 0
0.2165063510612474 23.87499999999382 0
0.2154323396504804 17.88628029152489 0
0.2165063510612505 22.87499999998834 0
1.7834936501406 16.87499999995553 0
1.783493650140598 18.87499999996648 0
0.2165063510612536 19.87499999997194 0
1.782209309132639 20.6283064335291 0
1.783493650140598 21.62499999998152 0
0.2165063510589445 5.124999999977882 0
0.2165063510589453 6.124999999972689 0
0.2152598843483796 14.87333945955648 0
0.2165063510612536 22.12499999998427 0
0.2168811663160669 21.12408186677418 0
1.783493650142138 11.37499999995775 0
1.783493650140596 23.37499999999109 0
0.2125994601885323 4.129640192305361 0
0.2165063510593294 2.124999999991674 0
0.2286858863556055 15.61532826126275 0
0.2165063510612274 16.37499999995281 0
0.2165063510612536 17.1249999999569 0
0.2165063510612536 18.62499999996511 0
1.783493650142907 6.624999999970097 0
1.793028017777358 7.36898937344628 0
1.783493650142535 2.624999999989967 0
1.787200702557896 8.105635696664862 0
1.795796768423882 8.876991781865753 0
1.78533123679134 13.62202584231051 0
1.783493650142138 10.37499999995938 0
1.784392044507847 14.62478380537853 0
1.783493650142138 9.624999999960613 0
1.785225431099243 17.61273794546188 0
1.7834936501406 22.62499999998701 0
1.785871536045631 19.65541230887186 0
0.2172161243497712 12.62810513991489 0
1.783493650142714 1.124999999995475 0
1.7834936501406 24.12499999999524 0
1.125000000348666 0.2165063510724181 0
0.8749999999977416 24.78349364905451 0
1.78322094015166 3.125637421955258 0
1.783493650140598 22.12499999998427 0
1.783493650142138 12.12499999995651 0
1.783493650140598 18.37499999996373 0
1.783493649980876 13.12500000047977 0
1.78516916102382 4.898303623492953 0
1.783493650142906 6.124999999972689 0
1.783493650142138 10.87499999995856 0
1.784901744075267 14.1268734179873 0
1.783118799250402 21.12408187054239 0
1.78537810653128 20.12184065874615 0
0.2165063509087274 3.374999999986946 0
0.2165063509110237 23.37499999999109 0
0.2165063509110221 20.62499999997604 0
0.2165063509089791 1.624999999993423 0
0.2128495786882048 11.39310144945173 0
0.2175883951810047 4.626469068534143 0
0.2165063509110221 19.12499999996783 0
0.216506350908713 5.624999999975286 0
0.2165063509110221 21.62499999998151 0
0.6249999999794902 0.2165063509163388 0
1.372537131578268 24.80469559411095 0
1.78349365014266 0.6249999999975475 0
0.215312734392944 24.36688833272531 0
0.2105976711703816 0.6400157230052738 0
1.623177940705901 0.2104503611019546 0
0.3791502237689693 24.75521795440461 0
1.783493650140598 24.62499999999794 0
1.374823806526234 0.2158959693367552 0
1.250041984998631 0.4327567677171352 0
1.000004243851215 0.4329869133523913 0
1.125021872390183 0.6494312259054013 0
0.8750046063559296 0.649502363720642 0
1.00000741504225 0.865993649828767 0
1.249994518411864 0.8659863163629565 0
1.125000720510215 1.082504012601438 0
0.8769136418952599 1.083639594910927 0
0.9999999976101587 1.299038105326181 0
1.249997697694223 1.299028336646262 0
1.125000695610077 1.515540499685475 0
0.875000066300838 1.515544056467134 0
1.000000335123544 1.732049461231185 0
0.7500000655670034 1.732050549378755 0
0.8750001057886744 1.948556671859147 0
1.12499990724694 1.94855655923355 0
1.000000000279167 2.165063083947179 0
1.249999973648575 2.165063452434884 0
1.124999954960448 2.381569687824641 0
0.8750000193926433 2.381569697300425 0
0.9999999840221234 2.598076117138822 0
0.7499999871456057 2.598076193277222 0
0.8749999875458746 2.814582521980058 0
1.124999972466631 2.814582527368356 0
0.9999999770781381 3.031088892427745 0
0.7526010998407099 3.041192970136659 0
0.8781631054564877 3.251690821738836 0
1.125315291518624 3.248007990060191 0
1.000496785419954 3.464937237968209 0
0.7520539857021187 3.464599768464245 0
0.8751080710809291 3.68066601305169 0
1.125107931209812 3.680776987896743 0
0.9999999602999292 3.897114317889759 0
1.250019995727062 3.897145436466429 0
1.124999955670877 4.113620671716417 0
0.8749999557173553 4.113620666492096 0
0.9999999512364216 4.330127019892811 0
0.624999965001337 3.680607959317425 0
0.7499999512312909 4.330127015020473 0
0.8749999472598459 4.546633368751643 0
1.124202476455067 4.546170350553886 0
0.9999973377272952 4.762879949062111 0
0.7499996936500579 4.763113541624659 0
0.8750906209878501 4.979584232547915 0
1.124987043781129 4.979550701138403 0
1.000077040985506 5.196031386812034 0
1.249999931104511 5.196152430351312 0
1.124993863488662 5.412597421263461 0
0.8738523472715096 5.41143736389089 0
0.999840160610126 5.629009906011718 0
1.249978321063839 5.629129821862985 0
1.124980074491811 5.845640549847773 0
0.8750024260812943 5.845574219154634 0
0.9999933866797944 6.062127875182412 0
1.249995575637906 6.062167129391348 0
1.124996008064707 6.278663774066471 0
0.8750033647241554 6.278663206741131 0
0.9999998393373621 6.495178988306451 0
0.75000059891808 6.495187776679259 0
0.8750006583665202 6.711691747954562 0
1.124998983461564 6.7116923930179 0
0.9999998127027618 6.928199483332302 0
1.249999871324986 6.928203241626581 0
1.124999544573254 7.144708307384458 0
0.8750001444684049 7.144708137689982 0
0.9999998394689559 7.361214842137064 0
0.7499998548015719 7.361215923177326 0
0.8749999372943216 7.577721897943132 0
1.125400849310789 7.578684404642781 0
0.9998346707099529 7.794721815727264 0
0.7499832795717134 7.794278210590477 0
0.8749526870580854 8.010884970441221 0
1.124920616135931 8.01090486819621 0
0.9999976150191243 8.227267995103704 0
1.250003402536249 8.22727099832761 0
1.124999808545582 8.443747693989017 0
0.8749974439816305 8.443756339102549 0
1.000000107366318 8.660255871625733 0
0.7499989751854476 8.660256608838484 0
0.8749997915100242 8.876760387193768 0
1.124999961453867 8.876760952070955 0
0.9999997683626491 9.093266829321015 0
1.249999835387025 9.093266910242392 0
1.124999772539295 9.309773100432151 0
0.8749997646626048 9.309773115279226 0
0.9999997642913528 9.526279451132464 0
0.7499997607866719 9.526279443326962 0
0.8749997552001196 9.742785791820783 0
1.124999755008121 9.742785802325821 0
0.9999997475022054 9.959292147509858 0
1.249999746882182 9.959292157598751 0
1.124999739338881 10.17579850288229 0
0.8749997395873986 10.17579849413552 0
0.9999997315441882 10.39230484868501 0
1.37500249832633 8.443757043438774 0
0.7499997315921011 10.39230483974175 0
0.8749997238667091 10.60881119419235 0
1.127992694145257 10.60959147866867 0
0.9999997151044906 10.82531754886742 0
0.749999715387722 10.82531754034874 0
0.8749997080435041 11.04182389500105 0
1.12521103717327 11.04192972449198 0
0.9999996982874158 11.25833024960652 0
1.249999696680724 11.25833026104506 0
1.12499968759296 11.4748366063345 0
0.8749996882741409 11.47483659447516 0
0.9999996772492461 11.69134295190836 0
1.249999676328299 11.69134296338135 0
1.124999666762017 11.90784930874065 0
0.8749996669059473 11.90784929757719 0
0.9999996559308109 12.12435565446252 0
0.749999655757515 12.12435564195818 0
0.8749996447897763 12.34086199985502 0
1.124999643444491 12.3408620119515 0
0.99999963167029 12.55736835665874 0
1.250792247916786 12.5573683694442 0
1.124999619419402 12.77387471296812 0
0.8749996197005816 12.77387469999132 0
0.9999996082762842 12.99038105663183 0
0.7499996085971646 12.99038104359622 0
0.8749995978723923 13.20688740028763 0
1.12248194475503 13.20540289637099 0
0.9999933672442703 13.42255767049146 0
0.7499990997004107 13.42330949691388 0
0.8750625571451721 13.63958027446972 0
1.124935123053614 13.63958020451773 0
0.9999995130309274 13.85622544455848 0
0.6250130142787256 13.63983862221511 0
1.249991643176133 13.85637717997438 0
1.124986341115677 14.07283813497109 0
0.8750134730095154 14.07284269377099 0
0.9999998445130339 14.28937851457999 0
0.7430176105726676 14.285395184525 0
0.8742831292242301 14.50624199738271 0
1.124923917121686 14.50594328093451 0
0.9999995192759481 14.72243185577427 0
1.25686472284417 14.72524458788975 0
1.124999507286311 14.93893821228931 0
0.8749995072415311 14.93893819871831 0
0.9999994953584247 15.15544455535098 0
0.7499994953852679 15.15544454185877 0
0.8749994837048568 15.37195089816293 0
1.124999482981058 15.37195091164916 0
0.9999994722523476 15.58845725491745 0
1.249999471022214 15.58845726775568 0
1.124999460421629 15.80496361109199 0
0.8749994605547853 15.80496359818984 0
0.9999994490595483 16.0214699543208 0
0.7499994491700314 16.02146994241949 0
0.8749994384171367 16.23797629897109 0
1.129861919715104 16.23522921477401 0
1.000494882842963 16.45474058867317 0
1.255079059694053 16.45313060106987 0
1.125438276358668 16.67173338986635 0
0.8750486906449033 16.6712776914894 0
0.9999994149821477 16.88749535813029 0
1.374780630289131 14.94390298013229 0
0.7499839271958262 16.8875754524332 0
0.8750036362455367 17.10402426970033 0
1.127555298338401 17.10552237254199 0
0.9999994008381479 17.32050806046819 0
0.7499982047128052 17.32051438485967 0
0.8749997284220956 17.53701618708873 0
1.124999426470047 17.53701459627362 0
0.9999995395178772 17.75352136449647 0
1.249999416414019 17.75352088866481 0
1.124999426246286 17.97002733603088 0
0.874999338027632 17.97002737808193 0
0.9999993676086666 18.18653351512351 0
0.7499993412067206 18.18653354378291 0
0.8749993569183406 18.4030398112326 0
1.1249993601156 18.40303983802757 0
0.9999993461459107 18.6195461697096 0
1.249999346897062 18.61954618391753 0
1.124999337760779 18.836052524837 0
0.8739420156007622 18.83722234643622 0
0.9999993302806921 19.05255886989044 0
1.249999329626297 19.05255887748715 0
1.124999323669838 19.26906522485895 0
0.8749993237857996 19.26906521704266 0
0.9999993173804061 19.48557157178349 0
0.7499993173724202 19.48557156428473 0
0.8749993108573042 19.70207791917512 0
1.122541343671235 19.70062950942574 0
0.9999931560094275 19.9177685897934 0
1.374999391528532 17.97002718746813 0
0.7499988179868691 19.91850207556302 0
0.8750607373812292 20.13477859111089 0
1.12493641344284 20.13477855229072 0
0.9999992388936461 20.35142038778859 0
0.625012406953052 20.13503064631747 0
1.249991564732082 20.35156840957201 0
1.124986398040024 20.56803047939459 0
0.8750128665439928 20.56803493195452 0
0.9999995789245678 20.78457002994228 0
1.249996804452284 20.78460023917591 0
1.124996617505202 21.00109836498893 0
0.8750023677054992 21.00110061695804 0
0.9999994875255948 21.21760949519762 0
1.249999273652457 21.2176223848446 0
1.124998195047005 21.43412422538566 0
0.8750002583772767 21.43412387580148 0
0.9999992303185804 21.65063132519663 0
1.24999926370425 21.65063508497027 0
1.124998942679091 21.86714014420928 0
0.8749995439287879 21.8671399935333 0
0.9999992437590829 22.08364668947604 0
1.249999256543804 22.08364778789283 0
1.124999160449259 22.30015376041683 0
0.8749993362435788 22.3001537128183 0
0.9999992470205983 22.51666025721888 0
0.7499992640853188 22.51666042748737 0
0.8749992610899232 22.73316673278568 0
1.124999226958338 22.73316675267435 0
0.9999992382684956 22.94967311519096 0
1.249999238368615 22.94967319484331 0
1.122439167064313 23.16466931633209 0
0.8747417424720159 23.16602733464855 0
0.9999812094931309 23.38208451172498 0
1.278846591541891 23.40081186348833 0
1.1249992242927 23.59919224382407 0
0.8750489273395222 23.59897965916346 0
0.9999839736802989 23.81561251734809 0
1.249999219632693 23.81569859528947 0
1.124991146074126 24.03217905244873 0
0.8750048400242811 24.03216872702739 0
0.624999531069938 14.50592548662647 0
0.9999982132841749 24.24868636933446 0
1.249999213198761 24.24871129905176 0
0.7500000609269253 24.24870775001083 0
0.6249900143802942 8.010763033387057 0
1.374999118121829 1.515541264874599 0
1.374999323056776 19.26906523040052 0
0.6249988292411656 17.53701646412734 0
0.6249997076139938 11.04182388610443 0
1.374721179506913 15.80016276516895 0
1.37499978781452 9.309773149279787 0
1.371552329428923 22.29809963227124 0
0.6249997391779406 10.17579848527316 0
0.6250103214276642 16.67104968367777 0
0.6291145808002778 12.33838682505439 0
1.374999895871662 6.278684192250104 0
1.374999618175271 12.77387472653424 0
0.6249998918880311 7.1447094235549 0
1.375003651352944 4.113626362126722 0
0.6249999881128457 2.381569833571837 0
0.6294165710684053 15.36928175518557 0
0.6294249431860612 8.879435569609379 0
1.374999975630126 2.38156982947516 0
1.37499952877533 14.50592552551035 0
1.374999830091508 7.144709467812441 0
1.372175804302763 8.012258337564528 0
0.6249999954781152 1.515544452752106 0
0.6249993479847706 18.40303982629846 0
1.374999665776603 11.90784931931178 0
1.374999641862825 12.34086202547443 0
1.375071406255019 16.67035373360234 0
1.374999737917188 10.17579851160236 0
1.374999391463234 17.53701442880231 0
0.6286308374844715 9.307603668563399 0
0.470918043483562 9.510997939028059 0
0.6285404526925895 15.8028504829907 0
0.4706599011745699 16.00967552171577 0
1.499999744931011 9.959292164617873 0
0.6284725526943934 1.950627449948585 0
0.6284462336600677 22.29809955260211 0
0.4704756817754753 22.50812576298966 0
1.374999704995769 11.04182391481719 0
1.499012254842723 16.44714108748026 0
0.6281989614718776 6.713596263533031 0
0.4705140768233639 6.497579343246349 0
0.6280615782539946 24.03038335363131 0
0.6253093142436882 14.06695346072761 0
0.627865190803194 12.77217859033323 0
0.4704764425705316 12.99548798696853 0
0.6268560647893395 4.975757413483901 0
0.6269006117696581 19.27269076330136 0
0.4707202756727941 19.49719199601438 0
1.499999675078151 11.69134297468835 0
1.12499921034458 24.46521764855875 0
0.4999993659397667 18.18653344417116 0
1.371488605262537 22.73167008510815 0
1.504744077487008 22.97715802243767 0
1.370955060759803 4.980402345662535 0
1.499999929878572 5.196152436293558 0
0.6293548881139853 4.110991639735849 0
1.3705824410804 15.36928182482908 0
1.370574407483723 8.879435025756226 0
1.374999878989074 6.711696895693642 0
1.380897594729863 20.11148647953637 0
1.380939180872978 13.61497708676404 0
1.371527462093017 1.95062749142015 0
0.6285652392369535 8.445878049071705 0
0.6253863979217489 14.94416601364853 0
1.370810334607463 18.4055623260173 0
0.6291308527930003 11.91033481603176 0
1.374528948967776 3.686468936001125 0
1.374999551909705 14.07291282417991 0
0.4999999509915973 4.330127009827259 0
0.4999999829787823 2.598076205008001 0
1.492777226562997 20.35769906131938 0
0.4999998547132064 7.361215913062999 0
1.495332783821784 18.62146445051553 0
0.4999994148581736 16.88749534262449 0
0.4999997317110624 10.39230483212717 0
0.3693137346163621 10.13749741340109 0
1.374999209760255 24.46521764986614 0
0.4682753507251104 10.78280790885313 0
0.3823692958620444 11.0527715177053 0
0.4683133534227085 17.27926039084758 0
0.3820300709754795 17.55120566418852 0
0.3693999907890919 16.63631897209016 0
0.5081701493545105 17.771778513292 0
0.5078763344107533 11.27402047508567 0
1.531618619468431 19.0162781953481 0
1.606408651926582 19.24874552869602 0
1.522361402017314 19.51165428226475 0
1.531619623182217 1.263774435342799 0
1.606431418334511 1.496099256464655 0
0.4688495964527916 7.761466172393114 0
0.3882406123326181 7.998040745204227 0
0.5001395750940891 9.939756115726809 0
0.5003371149795344 16.43741780913934 0
0.3728713101581841 7.132757655192945 0
0.4708687545160475 4.752105690907743 0
0.4695517914899458 24.25335167509555 0
0.6249992114624543 24.46521764142264 0
1.530813737839188 24.25418998201652 0
1.529318001304287 11.25574691609167 0
0.374000716382439 2.375282630129298 0
0.4968013474416445 3.437377234995109 0
0.3714602640632786 3.628817994031615 0
0.4199307417350372 3.20255271670212 0
1.499999902633724 6.062177845597992 0
1.4999992554271 22.08364779194985 0
0.4999995862441061 13.42339373053565 0
0.3697454796422773 13.62865695360159 0
0.4999993035849246 19.91858425872718 0
0.3737019331160105 20.12729210300935 0
0.503230215089796 20.34966970101458 0
0.2499992898041457 20.35159695281147 0
0.3749993568123587 18.40303978995931 0
0.4958922313316608 18.62407039378349 0
0.3596119101581947 18.87248697218492 0
0.2499999828484756 2.598076201868154 0
0.2499998545438803 7.361215902850011 0
1.624999665008505 11.90784933047979 0
0.6145845088144057 18.84424342605486 0
0.2457066284273826 18.1592658237639 0
1.624999419152261 16.67098902758125 0
1.502992319994645 16.89161886513189 0
1.651777373182207 17.12655047803248 0
1.399955497680019 17.11905051626642 0
1.544077315864881 17.32401525487001 0
1.754276795097261 11.6608781919164 0
0.4858975141586857 19.0677199332059 0
1.624999736972935 10.17579851916438 0
1.502191776252696 10.39586932731163 0
1.655565483762476 10.6273945863481 0
1.40400304118935 10.62558613935489 0
1.744349200467058 16.47564725191928 0
1.741922507113583 9.976959201171276 0
1.49999965686481 12.1243556754659 0
1.64102280556353 12.37027425947314 0
1.507035109206274 12.56392282067949 0
1.249982092579518 3.031311779030493 0
1.374999971544433 3.247595270411595 0
1.371263578312676 2.812431917864754 0
0.7499992642208504 21.65063507718632 0
0.62873893803895 21.43636572793211 0
0.6249992891496776 21.86714128182233 0
0.7500067273858544 21.21887796084719 0
0.6249992789800104 21.00111601860769 0
0.4712460713915864 21.23724496638543 0
1.528826831173392 3.012487359360718 0
1.249770383994807 22.5157794757446 0
1.527360519709983 22.49872021153405 0
0.4999992641912643 21.65063507294548 0
0.3749992607413343 21.86714142201768 0
0.4688541392206287 8.246660302726999 0
1.249999399462358 17.32050806916832 0
1.372315134554656 21.00099916248088 0
1.528653412378909 20.76309779587064 0
1.528947211403587 21.23777427388439 0
0.7499863990181486 23.38249698611819 0
0.6249566823677718 23.16610217247374 0
0.6250095535955653 23.59914633488486 0
0.4966139208801577 23.38183621699762 0
0.3695790232808139 23.6173489383534 0
0.3692333420283242 23.13582362013661 0
0.5002916055397489 22.93902792286112 0
0.4999992199925498 23.81569858305595 0
1.375001129970571 5.412634942245486 0
1.49999991737584 5.629165142028693 0
1.624999924476299 5.412658790566965 0
1.642824804630763 5.871532143967952 0
1.754325324188354 5.169231922038931 0
0.6249998957704616 6.278684166806128 0
1.496445379728448 3.899187510845741 0
1.626398104945293 4.123597764734565 0
1.503668324115134 4.347897082533554 0
1.607898364478066 4.566407578403252 0
1.749999956630928 3.897114332154275 0
1.499999870067155 6.928203251203723 0
1.624999861135806 7.144709606915227 0
1.505015090340391 7.365485743454483 0
1.636427767815283 7.613211563435438 0
1.75426021354571 6.900722236238273 0
1.378991489123212 7.582542965723377 0
0.7500059303816478 11.69274371488152 0
0.4725661004443942 11.72442666111829 0
1.499999986380979 2.165063514848349 0
1.62490330897447 2.382320598663037 0
1.753819680863776 2.138599864305386 0
1.530614458120796 1.745646580397962 0
1.370758075758231 0.6519436559684945 0
1.495339474751894 0.8680639595009924 0
1.492901864258621 8.21981760680765 0
1.624999805879419 8.443747713041109 0
1.49999979836156 8.660254059779787 0
0.7499835970352606 22.94857482290406 0
0.7503442578601415 20.35124158716194 0
0.6254735821102594 20.56194563020133 0
0.626470613123164 9.73826140258096 0
0.62801277674593 17.09361556267961 0
0.7500042555880745 6.062144867582667 0
0.6249976235079219 5.845649178775638 0
0.4999999028167926 6.062177811723258 0
0.3696281861785382 5.867785730515204 0
0.4977393303602946 5.629820571273166 0
0.3593284194768249 5.37761250378809 0
0.6135720380967331 5.403955771774116 0
0.4841254456239462 5.180776939696585 0
1.499999982002029 2.598076216502981 0
1.251069847608651 7.362741898426065 0
1.249999981612698 2.598076214770084 0
1.253372993327883 10.39286219685217 0
1.252059850865018 10.82412813865518 0
1.374999216925348 24.03220494572125 0
1.504105277170515 23.78595767557935 0
1.531518361504286 0.4707559665231512 0
1.24848678262855 4.7613647904145 0
0.7502156511729677 12.55608013226849 0
0.7496352105434017 9.955365132932583 0
0.7499992575994232 22.08364778005175 0
1.249993201553251 18.18795508408096 0
1.531366340652895 18.22595679035491 0
1.60633315243164 17.992965967148 0
1.531143012895935 17.74890653575509 0
1.249993554105085 8.661763981809461 0
1.499999778206129 9.093266763581646 0
1.624999770356718 9.309773117701621 0
1.493236614979385 9.535385371573698 0
0.4704683709921031 1.741251049315381 0
0.7500474947805842 16.45289689329214 0
0.6264053133680937 16.23536388189717 0
0.7499992207994153 23.81569858952349 0
1.374999228565634 21.86714130871963 0
1.624999260161395 21.86714144527696 0
1.499999261931822 21.65063508614705 0
0.7499999600071331 3.897114313146622 0
1.784678737963154 15.87648520835719 0
1.566987299806533 16.00000000089333 0
1.775091139812437 15.62647977192096 0
0.8749986106069573 0.2164992194645008 0
0.2165063503644803 16.12499999995142 0
1.783493650058902 7.875000000204797 0
0.2213233069609984 15.88842885664812 0
1.783493650687267 24.37499999999657 0
0.2165063509615456 24.12500000001986 0
1.782530038333905 23.87766977987402 0
1.124955728954871 24.79387850824136 0
1.783288435635388 2.877523511910017 0
0.376822059331363 0.2104503609474842 0
0.5021965101043959 0.4039742110406399 0
1.783493650687143 20.87499999997742 0
0.2165968235404311 1.873422154939874 0
0.2157646319022973 20.87481122444118 0
0.433850594968074 20.76795913912197 0
1.782130163448919 23.62656753772322 0
1.524931889830056 23.51919853658936 0
1.536656618335225 23.274754113554 0
1.741541071293075 23.12428218835185 0
1.743711984568016 22.89289181800269 0
0.2165651727509311 19.37518928800575 0
0.2165613923519872 19.62391845156532 0
1.785120385045275 14.87335307732419 0
1.566502489693147 14.73965851855643 0
1.772455685565134 18.62425858814131 0
1.783480614847398 22.37606189356904 0
1.785542015477423 19.8866024308671 0
1.566987300554505 19.75000000044458 0
0.2143736679604253 0.8828232889945266 0
0.433012702043189 0.9999999998659128 0
0.433012702204753 1.249999999832104 0
0.2102704161031097 15.35174754600098 0
1.772453490514418 0.8737436031423964 0
1.78427818502617 3.375061843860629 0
1.566171859119974 3.480572128720543 0
1.783431738350578 11.12631668400029 0
0.2156150173451551 1.375214055219874 0
0.2165063509094822 10.37499999995938 0
0.2165063509094822 14.62499999995237 0
0.433911298470165 14.73955427550523 0
0.2286817236800788 8.634455019589669 0
0.2146937669708776 8.881621461829129 0
0.218373235168493 12.3815180918587 0
0.220900234998307 9.388453204863522 0
0.2165063521378808 9.62499999802813 0
1.784491809208282 6.375386959806534 0
1.566625224021861 6.498545626652207 0
1.784471042323502 13.37302214713167 0
1.568623035643844 13.24975386447651 0
1.564403775067677 13.01856976441796 0
0.2165063505123203 4.874999999979179 0
0.2165063503643826 16.87499999995553 0
0.2165916162156265 6.375111057902076 0
0.2166274769158995 6.624302276530712 0
0.2127281213111653 4.379956082106194 0
0.2165957518234959 22.37649709434926 0
0.2165063505130828 11.62499999995735 0
0.2165063507466749 3.874999999984371 0
1.775058661161296 13.87274633970704 0
0.2288116795416331 12.12524772307975 0
0.2168976321286594 12.87618148095765 0
0.2167532888329305 13.12447700306046 0
0.2165063509094822 13.87499999995367 0
1.785364824883669 14.3760709292433 0
1.566484596482831 14.27415962027795 0
1.776642045301864 15.11723272676469 0
1.773524200915314 20.37321146896906 0
0.2165063514316129 14.37499999887923 0
0.4334644364496426 14.27328687410354 0
0.2167538281744947 21.37230483465149 0
1.783260340321506 21.37232876849056 0
0.2247027787300576 15.11458789276081 0
0.2165063503643619 22.62499999998704 0
0.6267395585959473 24.80208801678108 0
0.7468097354242283 8.230929090013174 0
1.249618805521665 4.332045555820584 0
0.7500513367256161 0.430056456930292 0
0.6249993104318535 19.70207791170401 0
1.253090519115053 1.735044893332294 0
0.4999992570912123 22.08364777495525 0
0.4966905260435434 3.881184763632848 0
0.6126224118161834 0.6618262943483328 0
1.249999655619488 12.12435566622494 0
0.7499997826404454 9.093266733152591 0
0.4725408121023207 12.52391281612876 0
0.624999947112921 4.546633363730725 0
0.6249993753526493 17.97002709849255 0
1.257237786323131 3.468153646160988 0
1.256713353976519 6.49551960978972 0
1.374999687021551 11.4748366172073 0
0.4999999884223714 2.165063503458225 0
0.6268813541365568 2.815342648155691 0
1.784083778902968 12.87624035851395 0
1.249999316074234 19.48557157994045 0
0.4999998011182788 8.66025402177813 0
0.5058547792068545 12.12441104045507 0
0.7507536274189893 17.7553668598809 0
0.7499999974830946 1.299038103548492 0
0.7484328670134874 5.628246895660279 0
0.8749992109035442 24.46521764418388 0
0.7483643707397049 18.62094996845637 0
0.7567574657170165 0.8825523508644538 0
1.249335393236544 9.527197583297159 0
0.6261717837774472 22.7343162999404 0
0.7499999885973377 2.1650635069018 0
0.6267913651530912 7.571206264121811 0
1.376914374534322 5.84827349426463 0
0.4991166688622848 13.852552411091 0
0.7428419165055541 14.72600045254765 0
0.7502651385719759 15.58708291942124 0
0.5054363865854641 9.094506777277141 0
0.7428353115742039 20.78063478414309 0
0.4999994717284298 15.58845722814628 0
0.7504475759702562 13.85388468555791 0
1.256722545591735 14.28784038604191 0
1.499999561784797 13.8564064803499 0
1.499999469713463 15.58845728063924 0
0.6249995975757863 13.20688738748652 0
0.4999998718174428 6.928203212457397 0
1.372967558000642 1.075563371187973 0
0.6280921024532207 10.59822826993522 0
1.249999607048721 12.99038106945863 0
0.749999873755231 6.928203222384047 0
1.249999448766258 16.02146996716472 0
1.422045002559208 16.21081455261575 0
1.374999286600373 20.56810333520458 0
1.24999958458951 13.42339376872646 0
1.249999302915868 19.91858427994345 0
0.504700467480098 15.15415014242298 0
1.253126180468666 16.88844574768078 0
1.249999493312259 15.15544456886057 0
1.372923296485897 18.82896721065612 0
1.371473320184224 9.74613512658374 0
0.7507423729239128 11.25991419850715 0
1.495376701171485 15.15428535751149 0
1.374999267299729 21.43412873578007 0
0.6254042424121774 11.48592871183053 0
0.7495497086031583 5.19151350946415 0
0.7497088936131165 19.05696115845704 0
1.248952042079685 7.794833590189847 0
1.502859292216121 7.808869932790337 0
1.786323487383831 17.37499999995827 0
1.785648000878525 9.079073605654717 0
1.785174163605879 8.662902477631334 0
1.57048583802299 13.49394035190437 0
1.57128954593032 19.99254829193069 0
1.36732388362337 4.552768442342169 0
0.2110832083572278 10.86560684216549 0
1.550421996909127 10.81621539830422 0
0.2101246289020369 17.36394653313028 0
1.610420105018154 24.75483746466487 0
0.2115021919526766 0.4130320372218517 0
0.2094283107240618 24.61274047470681 0
1.790571690609663 0.3872595258160444 0
0.2022743142992005 3.124999999988119 0
1.481409502505401 4.775409126481517 0
1.791379534766585 18.13134362618486 0
0.4133192537690553 0.7668785206961303 0
1.792879212189204 19.11831345549169 0
1.793345974381514 1.368124894088889 0
0.6430857501579637 1.073349010696968 0
0.2061430202865988 7.870385627856534 0
0.6443329999537613 3.232253489574004 0
1.611635886814013 9.726457685164384 0
1.348789942011244 19.70751384096802 0
1.349546339502975 13.22087440041916 0
1.596890719085468 24.4999999995892 0
1.349091338948176 23.15122161891988 0
0.4032112970924682 24.49953420532104 0
0.2036460170121339 8.136987635218883 0
0.401923785994399 1.500000000016085 0
0.4147285023586219 16.22419181527928 0
0.4109828692431539 9.732525579802056 0
1.599632495774445 8.045285406953651 0
1.598328734561627 14.4999999996913 0
0.4016707511763479 14.49999999980249 0
1.598364875507686 3.2500000001076 0
1.598370049767515 20.99999999957337 0
0.401629161471569 20.99999999989187 0
0.5316683276489909 3.007455464329445 0
0.4114558336412349 22.73082441054791 0
1.796474137156189 1.633114830261579 0
1.597012618220548 4.977109537803692 0
0.4040795428638981 12.75708537251016 0
1.800369560429293 19.40422993575063 0
1.595595832269439 11.49181295058144 0
0.4033126446616244 11.46237639750347 0
1.595201743655079 12.7599869366209 0
1.594723131204429 6.261203902295641 0
0.41392208548061 6.276061393065688 0
0.4046994901989763 17.97088492380211 0
1.593869071983455 24.01423194823191 0
0.4146887208082701 24.02994281065981 0
0.413464424763983 19.27466901215699 0
1.819496079835162 4.62499999998048 0
0.4137332104962788 4.974553977786488 0
1.798707500722224 17.85641310397695 0
1.592436924289951 6.730497133616598 0
0.4189816715415187 6.711316067324419 0
0.4194934216825715 13.20794147611332 0
0.1769883028472219 17.62499999995965 0
0.4052778410559627 4.483940792968269 0
0.4200135456012447 19.70607799389553 0
1.590458228274006 11.02834985065949 0
0.1758908678359142 11.12499999995815 0
1.579521693938379 22.2925841275272 0
0.4205762624548471 22.29698811661325 0
1.581789207542512 1.959401622283173 0
0.4207387455952567 1.952105501737928 0
1.589642453572248 22.71834416464469 0
1.588830657565538 15.78408156783448 0
0.4111687190385965 15.7840812427672 0
0.418329285511546 8.455671871018486 0
1.623856702466526 16.25145014342408 0
1.584165449930962 17.52554858799929 0
0.4192290152320233 9.299824559894491 0
1.827031564459817 8.374999999962665 0
1.577753806373773 2.805776738947353 0
0.4130371406449778 2.792621790294938 0
1.588989330351346 14.96189136444591 0
0.4110105407995058 14.96189113711341 0
1.82766048077293 9.37499999996102 0
1.577844608095806 21.44344634699316 0
0.4223751666141762 21.44348974106286 0
1.579773083797418 20.55633087356659 0
0.1707896403900502 3.624999999985667 0
0.1701071710743443 10.12499999995979 0
0.4194889259743004 7.557700931053157 0
0.1694863318746702 16.62499999995416 0
1.579951788617953 1.063470112670972 0
0.4092429584935581 20.5411704025137 0
0.1689272493994797 23.1249999999898 0
1.583393467734207 18.8120313813317 0
1.591079517434014 3.708271055607653 0
0.1678135022690341 5.87499999997399 0
0.4172862247876516 12.31644780916221 0
0.1675542922874365 23.62499999999255 0
0.4174608217323836 11.93236423531686 0
1.832815298074379 7.124999999967496 0
0.1671845465766423 7.124999999967499 0
0.1669624469377872 13.62499999995405 0
1.833160655210336 4.124999999983074 0
0.1668020362240495 20.12499999997338 0
1.581916258449091 18.42791387626756 0
1.833250580241676 21.87499999998289 0
0.1667485992380494 21.87499999998289 0
1.833275773049858 2.374999999990819 0
0.1667242093389258 2.374999999990822 0
1.591959224019941 14.04325264078175 0
0.4080406829502377 14.04325280583743 0
0.168474613394881 18.37793933038618 0
1.581490473540639 0.6746392898210756 0
0.4189099871384933 17.07864990780496 0
1.32661893341769 23.61496936072961 0
1.834562025481846 7.624999999964899 0
0.4194159769692676 10.58316744620076 0
1.830180825291816 11.88197317147369 0
0.4198729577790311 4.087713217968158 0
1.58852061783823 15.36835750165156 0
0.4122229384152221 15.3657433470596 0
1.58628148212003 8.880753812778913 0
0.4130418460408013 8.880685680667398 0
1.82887387107336 5.386027905969258 0
0.1614659513089068 18.87499999996648 0
0.160854751831692 5.374999999976582 0
1.822407129465952 16.66147277391259 0
1.821337957150836 10.16477912035938 0
1.840810757101389 12.37499999995609 0
0.7499999994158871 24.62435595652786 0
0.9999999987852025 24.62435595612259 0
1.249999209220223 24.62435533874454 0
1.843074797983006 5.874999999973991 0
1.84696254812952 17.12499999995689 0
1.849186494058672 10.62499999995898 0
1.595136872127283 13.6710498677086 0
1.816987297999186 0.183012702580036 0
0.1830127020956643 24.81698729822592 0
0.1830127018694837 0.1830127018049332 0
1.814073582475658 24.80864226696252 0
1.598841803693445 20.18462068270548 0
0.5625156627213025 0.8644199974848013 0
1.428885234785167 13.37397589257261 0
1.429478978561267 19.87375138156809 0
0.3436422202578843 3.007642711188519 0
0.5494162893017409 24.62841947930354 0
1.449802816933722 24.62923658966266 0
1.659872485214404 4.749875765566071 0
1.670365779217132 8.262681329179802 0
0.3285408363604846 11.23898716613062 0
1.674179058549695 9.482504364596961 0
0.3287961934173071 17.73950060762019 0
0.3919350563518062 0.593195912832838 0
1.812311375610928 9.790379314156194 0
0.3420188121285423 4.250000000057847 0
1.815223396387518 16.296180221829 0
$EndNodes
$Elements
5 2118 1 2118
1 1 1 8
1 1 5 
2 5 6 
3 6 7 
4 7 8 
5 8 9 
6 9 10 
7 10 11 
8 11 2 
1 2 1 8
9 3 12 
10 12 13 
11 13 14 
12 14 15 
13 15 16 
14 16 17 
15 17 18 
16 18 4 
1 3 1 100
17 1 19 
18 19 20 
19 20 21 
20 21 22 
21 22 23 
22 23 24 
23 24 25 
24 25 26 
25 26 27 
26 27 28 
27 28 29 
28 29 30 
29 30 31 
30 31 32 
31 32 33 
32 33 34 
33 34 35 
34 35 36 
35 36 37 
36 37 38 
37 38 39 
38 39 40 
39 40 41 
40 41 42 
41 42 43 
42 43 44 
43 44 45 
44 45 46 
45 46 47 
46 47 48 
47 48 49 
48 49 50 
49 50 51 
50 51 52 
51 52 53 
52 53 54 
53 54 55 
54 55 56 
55 56 57 
56 57 58 
57 58 59 
58 59 60 
59 60 61 
60 61 62 
61 62 63 
62 63 64 
63 64 65 
64 65 66 
65 66 67 
66 67 68 
67 68 69 
68 69 70 
69 70 71 
70 71 72 
71 72 73 
72 73 74 
73 74 75 
74 75 76 
75 76 77 
76 77 78 
77 78 79 
78 79 80 
79 80 81 
80 81 82 
81 82 83 
82 83 84 
83 84 85 
84 85 86 
85 86 87 
86 87 88 
87 88 89 
88 89 90 
89 90 91 
90 91 92 
91 92 93 
92 93 94 
93 94 95 
94 95 96 
95 96 97 
96 97 98 
97 98 99 
98 99 100 
99 100 101 
100 101 102 
101 102 103 
102 103 104 
103 104 105 
104 105 106 
105 106 107 
106 107 108 
107 108 109 
108 109 110 
109 110 111 
110 111 112 
111 112 113 
112 113 114 
113 114 115 
114 115 116 
115 116 117 
116 117 3 
1 4 1 100
117 2 118 
118 118 119 
119 119 120 
120 120 121 
121 121 122 
122 122 123 
123 123 124 
124 124 125 
125 125 126 
126 126 127 
127 127 128 
128 128 129 
129 129 130 
130 130 131 
131 131 132 
132 132 133 
133 133 134 
134 134 135 
135 135 136 
136 136 137 
137 137 138 
138 138 139 
139 139 140 
140 140 141 
141 141 142 
142 142 143 
143 143 144 
144 144 145 
145 145 146 
146 146 147 
147 147 148 
148 148 149 
149 149 150 
150 150 151 
151 151 152 
152 152 153 
153 153 154 
154 154 155 
155 155 156 
156 156 157 
157 157 158 
158 158 159 
159 159 160 
160 160 161 
161 161 162 
162 162 163 
163 163 164 
164 164 165 
165 165 166 
166 166 167 
167 167 168 
168 168 169 
169 169 170 
170 170 171 
171 171 172 
172 172 173 
173 173 174 
174 174 175 
175 175 176 
176 176 177 
177 177 178 
178 178 179 
179 179 180 
180 180 181 
181 181 182 
182 182 183 
183 183 184 
184 184 185 
185 185 186 
186 186 187 
187 187 188 
188 188 189 
189 189 190 
190 190 191 
191 191 192 
192 192 193 
193 193 194 
194 194 195 
195 195 196 
196 196 197 
197 197 198 
198 198 199 
199 199 200 
200 200 201 
201 201 202 
202 202 203 
203 203 204 
204 204 205 
205 205 206 
206 206 207 
207 207 208 
208 208 209 
209 209 210 
210 210 211 
211 211 212 
212 212 213 
213 213 214 
214 214 215 
215 215 216 
216 216 4 
2 5 2 1902
217 632 633 284 
218 882 1024 765 
219 252 1025 878 
220 609 913 231 
221 796 863 554 
222 860 1027 806 
223 741 782 781 
224 909 1026 721 
225 611 915 254 
226 230 623 607 
227 231 1021 609 
228 797 1025 252 
229 765 1024 229 
230 741 781 772 
231 742 919 295 
232 806 1027 807 
233 137 698 278 
234 551 880 830 
235 528 834 434 
236 748 922 276 
237 226 822 712 
238 260 1026 909 
239 253 624 613 
240 808 850 268 
241 254 1018 611 
242 800 853 668 
243 633 991 284 
244 780 877 674 
245 163 656 248 
246 584 784 783 
247 237 692 691 
248 295 1017 742 
249 239 924 616 
250 521 783 782 
251 551 789 438 
252 528 874 805 
253 269 925 619 
254 241 777 684 
255 276 1009 748 
256 282 836 685 
257 675 835 247 
258 236 650 90 
259 621 927 221 
260 676 774 273 
261 607 992 230 
262 768 906 708 
263 562 810 809 
264 767 769 564 
265 755 778 287 
266 678 791 266 
267 568 838 821 
268 579 787 786 
269 626 816 289 
270 576 827 826 
271 630 801 248 
272 572 819 818 
273 270 770 629 
274 296 771 627 
275 712 1003 226 
276 808 1001 850 
277 815 887 544 
278 244 730 729 
279 225 935 681 
280 635 697 279 
281 613 994 253 
282 716 947 224 
283 812 854 543 
284 144 709 256 
285 618 950 267 
286 690 693 235 
287 616 998 239 
288 265 962 750 
289 232 666 665 
290 590 854 812 
291 619 995 269 
292 645 657 290 
293 219 884 625 
294 691 997 237 
295 243 734 732 
296 221 993 621 
297 764 889 537 
298 637 638 228 
299 438 789 458 
300 805 874 595 
301 815 931 887 
302 452 890 454 
303 267 793 618 
304 554 936 796 
305 708 1020 768 
306 724 877 780 
307 782 783 249 
308 598 853 800 
309 783 933 584 
310 217 702 701 
311 830 880 599 
312 434 834 574 
313 639 640 240 
314 125 715 224 
315 764 890 889 
316 781 782 249 
317 636 760 274 
318 680 845 246 
319 684 990 241 
320 251 856 631 
321 138 698 137 
322 796 926 863 
323 836 988 685 
324 675 989 835 
325 676 983 774 
326 698 948 278 
327 739 914 569 
328 164 656 163 
329 809 981 562 
330 90 650 91 
331 244 1000 730 
332 290 1029 645 
333 830 940 551 
334 528 941 834 
335 681 978 225 
336 732 1030 243 
337 209 785 208 
338 784 785 209 
339 769 977 564 
340 656 951 248 
341 145 709 144 
342 258 735 714 
343 668 942 800 
344 210 784 209 
345 760 761 242 
346 679 680 292 
347 235 1002 690 
348 224 973 716 
349 755 974 778 
350 284 634 632 
351 674 944 780 
352 678 971 791 
353 821 972 568 
354 770 932 629 
355 29 646 223 
356 627 934 296 
357 665 1033 232 
358 579 968 787 
359 653 907 655 
360 289 967 626 
361 750 962 749 
362 126 715 125 
363 560 682 655 
364 638 873 828 
365 576 965 827 
366 100 642 286 
367 236 956 650 
368 132 704 220 
369 782 1019 521 
370 697 1037 279 
371 630 969 801 
372 572 964 819 
373 625 1005 219 
374 257 707 706 
375 28 646 29 
376 551 940 789 
377 805 941 528 
378 227 1027 876 
379 752 1026 908 
380 617 950 618 
381 99 642 100 
382 133 704 132 
383 831 1024 900 
384 894 1025 837 
385 889 890 452 
386 454 890 570 
387 620 947 716 
388 47 647 48 
389 629 957 270 
390 771 958 627 
391 399 738 661 
392 689 690 285 
393 584 785 784 
394 681 935 622 
395 818 955 572 
396 750 980 265 
397 217 703 702 
398 643 644 255 
399 927 935 50 
400 123 947 925 
401 194 950 924 
402 922 962 189 
403 521 933 783 
404 291 731 730 
405 638 1006 228 
406 248 951 630 
407 826 949 576 
408 280 914 660 
409 48 647 221 
410 653 1038 907 
411 846 1023 823 
412 275 664 648 
413 262 660 659 
414 655 682 654 
415 257 708 707 
416 238 653 652 
417 709 963 256 
418 644 645 255 
419 218 697 695 
420 291 732 731 
421 275 665 664 
422 461 895 654 
423 661 914 739 
424 568 946 838 
425 287 936 755 
426 701 1007 217 
427 695 696 218 
428 622 927 621 
429 606 1021 803 
430 640 1008 240 
431 619 925 620 
432 285 691 689 
433 616 924 617 
434 626 961 816 
435 564 937 767 
436 786 959 579 
437 249 784 210 
438 760 1010 274 
439 246 1011 680 
440 605 1018 817 
441 238 652 651 
442 605 817 613 
443 208 785 266 
444 660 1039 280 
445 749 922 748 
446 776 917 775 
447 298 919 742 
448 631 1013 251 
449 612 915 611 
450 718 1017 798 
451 262 659 658 
452 606 803 607 
453 610 913 609 
454 562 938 810 
455 807 1027 227 
456 720 909 721 
457 752 908 753 
458 633 846 823 
459 604 1009 790 
460 266 975 678 
461 229 1024 831 
462 837 1025 797 
463 273 942 676 
464 908 1026 260 
465 825 1003 861 
466 685 943 282 
467 247 944 675 
468 861 1001 825 
469 661 738 659 
470 777 943 684 
471 661 739 399 
472 635 872 697 
473 544 953 815 
474 790 998 604 
475 654 895 652 
476 814 931 815 
477 715 973 224 
478 798 995 718 
479 697 872 695 
480 654 682 461 
481 622 935 927 
482 925 947 620 
483 924 950 617 
484 749 962 922 
485 230 938 623 
486 823 1023 250 
487 543 954 812 
488 664 665 557 
489 350 864 733 
490 783 784 249 
491 577 903 734 
492 665 666 557 
493 714 1012 258 
494 649 866 477 
495 253 937 624 
496 916 932 300 
497 242 1010 760 
498 680 1011 292 
499 832 990 602 
500 657 904 578 
501 764 979 890 
502 234 979 764 
503 761 988 242 
504 292 989 679 
505 803 1021 231 
506 258 983 735 
507 776 1057 917 
508 734 903 733 
509 237 946 692 
510 876 981 227 
511 806 978 860 
512 765 976 882 
513 878 977 252 
514 649 904 657 
515 900 985 831 
516 837 986 894 
517 850 949 268 
518 251 974 856 
519 822 952 712 
520 274 971 636 
521 845 972 246 
522 240 968 639 
523 279 954 635 
524 729 955 244 
525 772 957 741 
526 693 958 235 
527 228 965 637 
528 219 964 884 
529 733 864 731 
530 602 1045 832 
531 817 1018 254 
532 644 866 649 
533 881 1040 824 
534 824 1014 881 
535 873 1015 828 
536 768 939 906 
537 828 1006 638 
538 660 661 659 
539 708 710 707 
540 653 654 652 
541 918 934 299 
542 644 649 645 
543 732 733 731 
544 557 666 417 
545 417 666 544 
546 733 903 350 
547 798 1017 295 
548 370 736 710 
549 477 904 649 
550 646 984 223 
551 710 736 707 
552 706 1004 257 
553 790 1009 276 
554 812 963 590 
555 793 930 618 
556 916 1051 932 
557 232 953 666 
558 928 945 327 
559 400 739 403 
560 905 906 553 
561 653 655 654 
562 649 657 645 
563 732 734 733 
564 710 905 370 
565 703 912 702 
566 284 920 634 
567 710 906 905 
568 226 1003 825 
569 403 739 569 
570 399 739 400 
571 741 1019 782 
572 825 1001 808 
573 690 1002 285 
574 539 678 677 
575 495 877 724 
576 557 848 664 
577 515 677 583 
578 390 898 392 
579 487 749 748 
580 681 840 594 
581 495 724 723 
582 512 677 515 
583 624 757 756 
584 530 740 629 
585 759 761 760 
586 541 756 456 
587 487 748 747 
588 594 840 378 
589 492 723 641 
590 489 723 492 
591 57 810 230 
592 71 827 228 
593 509 759 636 
594 673 675 674 
595 560 750 467 
596 693 758 573 
597 500 673 499 
598 523 758 688 
599 526 740 530 
600 618 859 534 
601 688 758 693 
602 677 678 583 
603 624 756 541 
604 465 682 560 
605 723 724 641 
606 467 750 487 
607 729 730 728 
608 16 773 294 
609 694 696 695 
610 586 694 348 
611 456 756 453 
612 503 673 500 
613 670 671 503 
614 355 727 354 
615 727 729 728 
616 725 745 623 
617 699 727 358 
618 516 722 514 
619 702 841 546 
620 506 759 509 
621 534 859 480 
622 689 691 687 
623 519 722 516 
624 673 674 499 
625 504 670 503 
626 416 744 414 
627 252 769 81 
628 358 727 355 
629 510 677 512 
630 9 301 271 
631 385 868 387 
632 56 810 57 
633 70 827 71 
634 302 742 717 
635 79 837 797 
636 76 833 804 
637 686 689 687 
638 378 840 375 
639 670 679 671 
640 450 757 564 
641 586 696 694 
642 669 737 735 
643 589 751 721 
644 301 302 271 
645 388 725 562 
646 686 687 519 
647 664 848 556 
648 597 711 411 
649 459 726 605 
650 470 747 473 
651 408 711 407 
652 540 745 394 
653 410 412 411 
654 15 773 16 
655 346 743 585 
656 659 738 559 
657 593 844 716 
658 451 757 450 
659 484 843 483 
660 507 746 672 
661 491 723 489 
662 360 699 358 
663 597 712 711 
664 349 351 350 
665 731 864 728 
666 412 413 411 
667 746 845 672 
668 473 747 596 
669 381 549 380 
670 379 381 380 
671 699 729 727 
672 727 728 354 
673 529 531 527 
674 379 380 378 
675 687 722 519 
676 373 532 372 
677 395 397 394 
678 536 615 610 
679 470 471 469 
680 688 693 690 
681 555 644 643 
682 508 746 507 
683 756 757 451 
684 526 529 527 
685 623 745 540 
686 377 379 378 
687 464 862 535 
688 353 355 354 
689 371 373 372 
690 388 562 561 
691 389 725 388 
692 393 395 394 
693 536 610 609 
694 868 898 390 
695 468 470 469 
696 531 628 627 
697 613 624 541 
698 332 762 339 
699 688 690 689 
700 406 408 407 
701 411 711 408 
702 483 579 578 
703 459 541 456 
704 492 639 488 
705 16 294 17 
706 535 611 463 
707 482 484 483 
708 334 762 332 
709 318 870 316 
710 493 891 494 
711 506 508 507 
712 368 603 545 
713 520 686 519 
714 340 587 337 
715 577 626 344 
716 375 840 373 
717 488 843 484 
718 453 756 451 
719 78 837 79 
720 75 833 76 
721 510 512 511 
722 348 694 349 
723 502 504 503 
724 373 840 532 
725 532 621 372 
726 412 848 415 
727 606 607 540 
728 735 737 550 
729 759 760 636 
730 377 378 375 
731 531 573 527 
732 477 866 474 
733 603 625 545 
734 340 600 587 
735 301 742 302 
736 10 301 9 
737 524 758 523 
738 337 762 334 
739 459 605 541 
740 492 640 639 
741 535 612 611 
742 671 673 503 
743 730 731 728 
744 81 769 82 
745 340 851 600 
746 512 513 511 
747 14 839 272 
748 336 337 334 
749 343 344 341 
750 387 389 388 
751 388 561 386 
752 385 386 383 
753 721 751 396 
754 55 809 56 
755 69 826 70 
756 536 609 401 
757 672 680 679 
758 302 303 271 
759 387 868 390 
760 415 848 557 
761 468 469 466 
762 531 627 573 
763 555 643 582 
764 605 613 541 
765 671 675 673 
766 507 672 670 
767 472 866 555 
768 523 688 686 
769 571 572 360 
770 643 650 582 
771 672 679 670 
772 688 689 686 
773 561 849 386 
774 691 692 687 
775 413 597 411 
776 344 851 341 
777 406 407 404 
778 468 747 470 
779 326 328 327 
780 601 646 631 
781 526 527 524 
782 380 594 378 
783 397 540 394 
784 601 631 547 
785 339 846 633 
786 796 802 222 
787 457 895 461 
788 323 601 547 
789 513 568 567 
790 311 885 619 
791 471 852 469 
792 483 843 579 
793 555 582 471 
794 667 668 329 
795 460 726 459 
796 357 358 355 
797 483 578 481 
798 339 633 632 
799 457 459 456 
800 413 861 597 
801 314 315 313 
802 489 492 488 
803 312 314 313 
804 464 535 463 
805 322 324 323 
806 323 547 321 
807 507 670 504 
808 466 862 464 
809 523 686 520 
810 762 846 339 
811 315 755 554 
812 582 852 471 
813 566 755 315 
814 179 765 229 
815 315 554 313 
816 302 304 303 
817 8 766 7 
818 332 339 331 
819 316 566 315 
820 330 332 331 
821 349 350 347 
822 316 870 566 
823 314 316 315 
824 115 296 116 
825 29 223 30 
826 83 253 84 
827 804 805 245 
828 92 255 93 
829 26 251 27 
830 51 225 52 
831 97 240 98 
832 20 297 21 
833 54 227 55 
834 57 230 58 
835 71 228 72 
836 42 244 43 
837 48 221 49 
838 22 222 23 
839 38 243 39 
840 45 219 46 
841 65 226 66 
842 34 250 35 
843 89 236 90 
844 109 237 110 
845 60 231 61 
846 68 268 69 
847 74 233 75 
848 77 245 78 
849 80 252 81 
850 86 254 87 
851 102 247 103 
852 106 246 107 
853 113 235 114 
854 794 795 222 
855 305 842 303 
856 470 472 471 
857 359 360 358 
858 455 456 453 
859 492 641 640 
860 535 614 612 
861 304 305 303 
862 512 514 513 
863 513 567 511 
864 286 780 779 
865 795 796 222 
866 304 306 305 
867 639 843 488 
868 235 771 114 
869 102 779 247 
870 368 545 366 
871 692 722 687 
872 26 778 251 
873 7 766 293 
874 476 477 474 
875 338 340 337 
876 345 577 344 
877 410 411 408 
878 391 745 389 
879 487 750 749 
880 271 766 8 
881 222 802 23 
882 587 762 337 
883 884 888 545 
884 339 632 331 
885 308 310 309 
886 361 571 360 
887 529 865 531 
888 115 771 296 
889 77 804 245 
890 80 797 252 
891 60 803 231 
892 250 820 35 
893 22 794 222 
894 297 794 21 
895 74 828 233 
896 532 622 621 
897 324 857 323 
898 716 844 533 
899 281 824 173 
900 170 813 277 
901 263 829 175 
902 177 831 788 
903 472 555 471 
904 603 647 625 
905 641 642 640 
906 381 849 549 
907 396 751 377 
908 11 298 10 
909 293 776 775 
910 114 771 115 
911 101 779 102 
912 457 460 459 
913 809 810 56 
914 826 827 70 
915 303 766 271 
916 14 272 15 
917 12 299 13 
918 525 526 524 
919 572 699 360 
920 95 786 96 
921 23 802 24 
922 7 293 6 
923 482 483 481 
924 452 453 451 
925 542 861 413 
926 667 676 668 
927 24 802 287 
928 320 321 318 
929 25 778 26 
930 455 457 456 
931 357 359 358 
932 290 786 95 
933 9 271 8 
934 322 323 321 
935 286 779 101 
936 486 488 484 
937 476 478 477 
938 522 524 523 
939 480 482 481 
940 495 723 491 
941 494 496 495 
942 24 287 25 
943 111 285 112 
944 94 290 95 
945 59 803 60 
946 76 804 77 
947 36 289 37 
948 40 291 41 
949 35 820 36 
950 36 820 289 
951 63 288 64 
952 73 828 74 
953 100 286 101 
954 104 292 105 
955 21 794 22 
956 79 797 80 
957 31 284 32 
958 34 823 250 
959 563 878 875 
960 293 775 6 
961 406 855 409 
962 287 778 25 
963 498 499 496 
964 672 845 680 
965 486 489 488 
966 502 503 500 
967 692 869 722 
968 498 500 499 
969 518 520 519 
970 462 464 463 
971 341 851 340 
972 303 842 766 
973 414 744 542 
974 474 866 472 
975 326 667 329 
976 326 327 324 
977 6 775 5 
978 668 853 329 
979 506 507 504 
980 573 758 527 
981 367 369 368 
982 293 842 776 
983 367 368 366 
984 621 871 372 
985 181 763 180 
986 203 836 202 
987 199 832 198 
988 480 481 478 
989 522 523 520 
990 581 865 529 
991 321 870 318 
992 555 866 644 
993 494 495 491 
994 327 857 324 
995 531 865 628 
996 97 787 240 
997 538 868 385 
998 813 814 277 
999 45 819 219 
1000 54 807 227 
1001 38 816 243 
1002 226 825 66 
1003 65 822 226 
1004 247 835 103 
1005 383 849 381 
1006 351 864 350 
1007 575 850 744 
1008 336 338 337 
1009 343 345 344 
1010 320 322 321 
1011 409 410 408 
1012 449 451 450 
1013 365 367 366 
1014 587 846 762 
1015 766 842 293 
1016 390 391 389 
1017 33 823 34 
1018 312 313 310 
1019 409 855 580 
1020 343 743 346 
1021 421 575 419 
1022 626 851 344 
1023 305 847 842 
1024 397 606 540 
1025 786 787 96 
1026 421 576 575 
1027 386 849 383 
1028 306 867 305 
1029 310 863 309 
1030 379 751 382 
1031 349 352 351 
1032 567 845 746 
1033 83 767 253 
1034 68 808 268 
1035 225 806 52 
1036 86 817 254 
1037 288 822 64 
1038 289 816 37 
1039 244 818 43 
1040 246 821 107 
1041 109 838 237 
1042 104 835 292 
1043 376 377 375 
1044 379 382 381 
1045 308 309 306 
1046 359 361 360 
1047 382 751 589 
1048 526 530 529 
1049 377 751 379 
1050 510 511 508 
1051 338 341 340 
1052 313 863 310 
1053 482 485 484 
1054 658 659 559 
1055 518 519 516 
1056 506 509 508 
1057 462 463 460 
1058 609 886 401 
1059 330 331 328 
1060 707 736 552 
1061 394 745 391 
1062 356 357 355 
1063 374 375 373 
1064 535 862 614 
1065 543 854 357 
1066 309 867 306 
1067 842 847 776 
1068 419 744 416 
1069 450 563 448 
1070 462 682 465 
1071 308 885 311 
1072 631 856 547 
1073 13 839 14 
1074 353 354 351 
1075 371 372 369 
1076 695 872 352 
1077 323 857 601 
1078 392 898 565 
1079 369 871 368 
1080 198 832 283 
1081 202 836 282 
1082 365 366 363 
1083 571 888 884 
1084 533 844 312 
1085 96 787 97 
1086 44 819 45 
1087 66 825 67 
1088 37 816 38 
1089 53 807 54 
1090 64 822 65 
1091 103 835 104 
1092 683 685 501 
1093 728 864 354 
1094 353 872 356 
1095 180 765 179 
1096 372 871 369 
1097 505 506 504 
1098 511 746 508 
1099 353 356 355 
1100 371 374 373 
1101 409 556 410 
1102 390 392 391 
1103 563 875 448 
1104 405 855 406 
1105 349 694 352 
1106 335 336 334 
1107 376 396 377 
1108 382 383 381 
1109 389 745 725 
1110 530 581 529 
1111 342 343 341 
1112 454 455 453 
1113 532 840 681 
1114 550 737 320 
1115 356 543 357 
1116 414 542 413 
1117 856 870 547 
1118 566 870 856 
1119 356 872 635 
1120 67 825 808 
1121 806 807 53 
1122 818 819 44 
1123 617 618 534 
1124 387 388 386 
1125 421 883 576 
1126 409 580 556 
1127 335 546 336 
1128 382 384 383 
1129 554 863 313 
1130 384 385 383 
1131 382 589 384 
1132 479 480 478 
1133 487 747 468 
1134 515 517 516 
1135 490 491 489 
1136 521 522 520 
1137 815 858 277 
1138 556 848 410 
1139 410 848 412 
1140 467 487 468 
1141 515 516 514 
1142 498 683 501 
1143 527 758 524 
1144 493 494 491 
1145 82 767 83 
1146 450 564 563 
1147 67 808 68 
1148 52 806 53 
1149 85 817 86 
1150 43 818 44 
1151 402 536 401 
1152 108 838 109 
1153 821 838 108 
1154 107 821 108 
1155 482 859 485 
1156 352 872 353 
1157 539 677 510 
1158 354 864 351 
1159 475 476 474 
1160 569 630 405 
1161 326 329 328 
1162 317 844 593 
1163 233 833 75 
1164 245 837 78 
1165 595 874 440 
1166 364 705 552 
1167 312 844 314 
1168 322 325 324 
1169 497 684 683 
1170 467 468 466 
1171 335 700 546 
1172 406 409 408 
1173 470 473 472 
1174 512 515 514 
1175 330 333 332 
1176 227 809 55 
1177 268 826 69 
1178 547 870 321 
1179 457 461 460 
1180 272 773 15 
1181 348 349 347 
1182 480 859 482 
1183 494 497 496 
1184 720 721 396 
1185 498 501 500 
1186 462 465 464 
1187 387 390 389 
1188 314 844 317 
1189 694 695 352 
1190 586 698 696 
1191 171 813 170 
1192 173 824 172 
1193 175 829 174 
1194 178 831 177 
1195 342 743 343 
1196 356 635 543 
1197 705 706 552 
1198 368 871 603 
1199 449 450 448 
1200 330 853 333 
1201 305 867 847 
1202 359 854 362 
1203 432 879 428 
1204 602 891 493 
1205 400 401 398 
1206 299 839 13 
1207 298 301 10 
1208 302 717 304 
1209 420 421 419 
1210 314 317 316 
1211 333 853 598 
1212 234 763 181 
1213 233 834 833 
1214 241 832 199 
1215 242 836 203 
1216 304 307 306 
1217 308 311 310 
1218 392 565 559 
1219 448 875 445 
1220 304 717 307 
1221 532 681 622 
1222 403 569 405 
1223 405 406 404 
1224 317 318 316 
1225 717 718 307 
1226 359 362 361 
1227 325 326 324 
1228 333 334 332 
1229 412 414 413 
1230 549 860 380 
1231 374 376 375 
1232 442 894 595 
1233 346 585 348 
1234 548 894 442 
1235 429 873 638 
1236 429 638 637 
1237 435 528 434 
1238 443 548 442 
1239 429 637 425 
1240 433 435 434 
1241 395 398 397 
1242 434 574 432 
1243 442 595 440 
1244 441 443 442 
1245 700 701 546 
1246 546 841 336 
1247 426 429 425 
1248 433 434 432 
1249 441 442 440 
1250 317 319 318 
1251 325 667 326 
1252 747 748 596 
1253 362 854 590 
1254 620 716 533 
1255 580 648 556 
1256 319 320 318 
1257 317 593 319 
1258 325 669 667 
1259 567 746 511 
1260 445 875 443 
1261 319 550 320 
1262 384 538 385 
1263 669 676 667 
1264 607 623 540 
1265 428 879 426 
1266 593 713 319 
1267 319 713 550 
1268 873 879 574 
1269 499 877 496 
1270 674 877 499 
1271 536 899 615 
1272 424 426 425 
1273 431 433 432 
1274 447 449 448 
1275 385 387 386 
1276 439 441 440 
1277 461 682 462 
1278 497 683 498 
1279 465 467 466 
1280 705 709 706 
1281 418 419 416 
1282 598 700 335 
1283 429 879 873 
1284 367 736 370 
1285 357 854 359 
1286 875 878 548 
1287 565 658 559 
1288 149 768 148 
1289 311 619 533 
1290 333 335 334 
1291 574 879 432 
1292 367 370 369 
1293 763 765 180 
1294 485 486 484 
1295 509 510 508 
1296 343 346 345 
1297 365 736 367 
1298 443 875 548 
1299 425 883 422 
1300 713 714 550 
1301 422 883 421 
1302 575 744 419 
1303 307 308 306 
1304 311 312 310 
1305 338 342 341 
1306 298 742 301 
1307 718 885 307 
1308 311 533 312 
1309 120 798 295 
1310 502 505 504 
1311 307 885 308 
1312 513 869 568 
1313 121 798 120 
1314 463 726 460 
1315 182 234 181 
1316 150 259 149 
1317 214 270 213 
1318 216 300 215 
1319 130 273 129 
1320 125 224 124 
1321 277 858 169 
1322 128 258 127 
1323 788 789 263 
1324 176 788 263 
1325 239 790 192 
1326 120 295 119 
1327 256 812 811 
1328 206 274 205 
1329 185 238 184 
1330 193 239 192 
1331 198 283 197 
1332 200 241 199 
1333 202 282 201 
1334 204 242 203 
1335 191 276 190 
1336 166 275 165 
1337 159 262 158 
1338 176 263 175 
1339 211 249 210 
1340 142 279 141 
1341 179 229 178 
1342 153 260 152 
1343 122 269 121 
1344 135 217 134 
1345 140 218 139 
1346 132 220 131 
1347 191 790 276 
1348 137 278 136 
1349 144 256 143 
1350 147 257 146 
1351 161 280 160 
1352 163 248 162 
1353 156 264 155 
1354 168 232 167 
1355 169 858 168 
1356 170 277 169 
1357 172 261 171 
1358 174 281 173 
1359 177 788 176 
1360 188 265 187 
1361 208 266 207 
1362 192 790 191 
1363 196 267 195 
1364 168 858 232 
1365 792 793 267 
1366 220 800 799 
1367 517 518 516 
1368 619 620 533 
1369 630 855 405 
1370 346 348 347 
1371 426 879 429 
1372 269 798 121 
1373 473 474 472 
1374 364 552 365 
1375 496 877 495 
1376 461 462 460 
1377 497 498 496 
1378 501 502 500 
1379 465 466 464 
1380 361 888 571 
1381 333 598 335 
1382 552 736 365 
1383 713 715 714 
1384 719 720 396 
1385 82 769 767 
1386 706 707 552 
1387 424 425 422 
1388 273 774 129 
1389 128 774 258 
1390 130 799 273 
1391 220 799 131 
1392 431 432 428 
1393 447 448 445 
1394 393 394 391 
1395 525 740 526 
1396 439 440 437 
1397 452 454 453 
1398 325 737 669 
1399 420 422 421 
1400 329 853 330 
1401 322 737 325 
1402 585 586 348 
1403 700 704 701 
1404 701 702 546 
1405 469 862 466 
1406 625 884 545 
1407 352 353 351 
1408 418 420 419 
1409 329 330 328 
1410 370 371 369 
1411 400 402 401 
1412 545 888 366 
1413 346 347 345 
1414 714 735 550 
1415 363 888 361 
1416 320 737 322 
1417 129 774 128 
1418 131 799 130 
1419 259 768 149 
1420 637 883 425 
1421 234 764 763 
1422 530 608 581 
1423 415 416 414 
1424 590 705 364 
1425 515 583 517 
1426 362 590 364 
1427 364 365 363 
1428 362 364 363 
1429 376 719 396 
1430 270 772 213 
1431 214 770 270 
1432 300 770 215 
1433 211 781 249 
1434 282 777 201 
1435 283 792 197 
1436 200 777 241 
1437 206 791 274 
1438 248 801 162 
1439 256 811 143 
1440 142 811 279 
1441 161 801 280 
1442 266 791 207 
1443 196 792 267 
1444 486 893 490 
1445 362 363 361 
1446 415 417 416 
1447 412 415 414 
1448 561 876 849 
1449 374 553 376 
1450 401 886 398 
1451 465 560 467 
1452 565 663 658 
1453 490 893 591 
1454 599 880 431 
1455 393 738 395 
1456 380 860 594 
1457 559 738 393 
1458 514 869 513 
1459 522 525 524 
1460 476 479 478 
1461 486 490 489 
1462 518 521 520 
1463 652 895 558 
1464 400 403 402 
1465 722 869 514 
1466 553 719 376 
1467 449 452 451 
1468 415 557 417 
1469 447 889 449 
1470 505 759 506 
1471 454 558 455 
1472 494 891 497 
1473 712 902 711 
1474 479 534 480 
1475 490 493 491 
1476 814 815 277 
1477 397 886 606 
1478 651 652 558 
1479 213 772 212 
1480 772 781 212 
1481 212 781 211 
1482 215 770 214 
1483 201 777 200 
1484 207 791 206 
1485 197 792 196 
1486 143 811 142 
1487 162 801 161 
1488 366 888 363 
1489 392 559 393 
1490 754 868 538 
1491 485 893 486 
1492 509 539 510 
1493 444 445 443 
1494 427 428 426 
1495 473 475 474 
1496 440 874 437 
1497 403 405 404 
1498 433 880 436 
1499 436 880 551 
1500 433 436 435 
1501 395 399 398 
1502 604 897 475 
1503 580 656 648 
1504 648 664 556 
1505 431 880 433 
1506 261 813 171 
1507 174 829 281 
1508 172 824 261 
1509 229 831 178 
1510 570 662 651 
1511 420 423 422 
1512 849 876 549 
1513 417 418 416 
1514 611 726 463 
1515 744 850 542 
1516 398 886 397 
1517 502 901 505 
1518 444 446 445 
1519 427 430 428 
1520 475 897 476 
1521 852 862 469 
1522 399 400 398 
1523 436 437 435 
1524 829 830 281 
1525 458 896 439 
1526 423 424 422 
1527 417 544 418 
1528 444 588 446 
1529 427 592 430 
1530 430 431 428 
1531 446 447 445 
1532 392 393 391 
1533 436 438 437 
1534 418 887 420 
1535 430 599 431 
1536 446 537 447 
1537 438 439 437 
1538 436 551 438 
1539 435 874 528 
1540 438 458 439 
1541 753 754 538 
1542 752 753 538 
1543 589 752 384 
1544 592 881 430 
1545 588 882 446 
1546 430 881 599 
1547 446 882 537 
1548 449 889 452 
1549 441 444 443 
1550 420 887 423 
1551 424 427 426 
1552 525 741 740 
1553 437 874 435 
1554 583 584 517 
1555 558 895 455 
1556 403 404 402 
1557 544 887 418 
1558 505 761 759 
1559 395 738 399 
1560 537 889 447 
1561 427 892 592 
1562 336 841 338 
1563 384 752 538 
1564 497 891 684 
1565 899 902 615 
1566 505 901 761 
1567 570 651 558 
1568 591 602 493 
1569 423 892 424 
1570 338 841 342 
1571 614 862 852 
1572 439 896 441 
1573 455 895 457 
1574 530 629 608 
1575 402 899 536 
1576 407 899 404 
1577 444 896 588 
1578 454 570 558 
1579 479 616 534 
1580 490 591 493 
1581 424 892 427 
1582 509 636 539 
1583 473 596 475 
1584 501 901 502 
1585 616 617 534 
1586 596 604 475 
1587 754 898 868 
1588 441 896 444 
1589 685 901 501 
1590 479 897 616 
1591 458 900 896 
1592 404 899 402 
1593 476 897 479 
1594 407 902 899 
1595 896 900 588 
1596 711 902 407 
1597 629 932 608 
1598 708 906 710 
1599 350 903 347 
1600 345 903 577 
1601 478 904 477 
1602 578 904 481 
1603 628 934 627 
1604 370 905 371 
1605 374 905 553 
1606 754 1055 929 
1607 347 903 345 
1608 481 904 478 
1609 914 969 569 
1610 371 905 374 
1611 265 907 187 
1612 154 908 153 
1613 730 1000 291 
1614 912 921 743 
1615 795 926 796 
1616 642 996 286 
1617 239 998 790 
1618 634 928 632 
1619 152 909 151 
1620 820 1059 967 
1621 47 1005 647 
1622 187 907 186 
1623 255 1016 643 
1624 261 910 813 
1625 153 908 260 
1626 704 999 220 
1627 283 911 792 
1628 269 995 798 
1629 702 912 841 
1630 342 912 743 
1631 657 959 290 
1632 934 1050 299 
1633 260 909 152 
1634 61 913 62 
1635 967 1059 600 
1636 939 1053 719 
1637 647 993 221 
1638 87 915 88 
1639 243 961 734 
1640 703 921 912 
1641 929 1055 264 
1642 116 918 117 
1643 19 917 20 
1644 119 919 118 
1645 17 916 18 
1646 223 920 30 
1647 31 920 284 
1648 813 910 814 
1649 190 922 189 
1650 217 960 703 
1651 915 966 88 
1652 634 945 928 
1653 794 923 795 
1654 792 911 793 
1655 194 924 193 
1656 285 997 691 
1657 648 1022 275 
1658 841 912 342 
1659 123 925 122 
1660 913 970 62 
1661 133 1007 704 
1662 660 914 661 
1663 309 926 867 
1664 49 927 50 
1665 952 1054 615 
1666 99 1008 642 
1667 231 913 61 
1668 632 928 331 
1669 328 928 327 
1670 817 994 613 
1671 259 1053 939 
1672 241 990 832 
1673 257 1020 708 
1674 754 929 898 
1675 565 929 663 
1676 618 930 859 
1677 485 930 893 
1678 423 931 892 
1679 584 933 517 
1680 518 933 521 
1681 242 988 836 
1682 835 989 292 
1683 254 915 87 
1684 645 1029 255 
1685 50 935 51 
1686 291 1030 732 
1687 892 1047 592 
1688 796 936 802 
1689 755 936 554 
1690 829 940 830 
1691 789 940 263 
1692 834 941 833 
1693 804 941 805 
1694 800 942 799 
1695 780 944 779 
1696 869 946 568 
1697 275 1033 665 
1698 774 983 258 
1699 124 947 123 
1700 586 948 698 
1701 218 1037 697 
1702 28 1013 646 
1703 909 982 151 
1704 576 949 575 
1705 195 950 194 
1706 630 951 855 
1707 580 951 656 
1708 902 952 615 
1709 238 1038 653 
1710 803 992 607 
1711 296 918 116 
1712 294 916 17 
1713 20 917 297 
1714 295 919 119 
1715 572 955 699 
1716 956 1056 614 
1717 30 920 31 
1718 262 1039 660 
1719 650 956 582 
1720 852 956 614 
1721 612 966 915 
1722 740 957 629 
1723 627 958 573 
1724 135 960 217 
1725 278 960 136 
1726 154 987 908 
1727 537 976 764 
1728 743 921 585 
1729 189 962 188 
1730 705 963 709 
1731 571 964 572 
1732 610 970 913 
1733 757 937 564 
1734 696 1028 218 
1735 883 965 576 
1736 89 966 236 
1737 227 981 809 
1738 276 922 190 
1739 626 967 851 
1740 832 1045 283 
1741 843 968 579 
1742 63 970 288 
1743 539 971 678 
1744 568 972 567 
1745 716 973 593 
1746 713 973 715 
1747 566 974 755 
1748 592 1047 910 
1749 564 977 563 
1750 553 939 719 
1751 594 978 681 
1752 562 981 561 
1753 824 1040 261 
1754 720 982 909 
1755 823 991 633 
1756 150 982 259 
1757 669 983 676 
1758 601 984 646 
1759 831 985 788 
1760 245 986 837 
1761 908 987 753 
1762 264 987 155 
1763 265 980 907 
1764 685 988 901 
1765 671 989 675 
1766 891 990 684 
1767 225 978 806 
1768 284 991 32 
1769 33 991 823 
1770 893 1048 591 
1771 230 992 58 
1772 59 992 803 
1773 603 993 647 
1774 621 993 871 
1775 253 994 84 
1776 85 994 817 
1777 885 995 619 
1778 237 997 110 
1779 111 997 285 
1780 763 976 765 
1781 252 977 769 
1782 897 998 616 
1783 42 1000 244 
1784 291 1000 41 
1785 655 980 560 
1786 850 1001 542 
1787 113 1002 235 
1788 285 1002 112 
1789 597 1003 712 
1790 257 1004 146 
1791 219 1005 46 
1792 228 1006 72 
1793 73 1006 828 
1794 217 1007 134 
1795 240 1008 98 
1796 748 1009 596 
1797 274 1010 205 
1798 204 1010 242 
1799 106 1011 246 
1800 292 1011 105 
1801 258 1012 127 
1802 251 1013 27 
1803 281 1014 824 
1804 828 1015 233 
1805 742 1017 717 
1806 725 938 562 
1807 662 1060 183 
1808 611 1018 726 
1809 521 1019 522 
1810 525 1019 741 
1811 768 1020 148 
1812 147 1020 257 
1813 609 1021 886 
1814 907 980 655 
1815 600 1023 587 
1816 921 1052 948 
1817 588 1024 882 
1818 878 1025 548 
1819 721 1026 589 
1820 549 1027 860 
1821 584 975 785 
1822 663 1058 157 
1823 297 923 794 
1824 255 1029 93 
1825 94 1029 290 
1826 778 974 251 
1827 243 1030 39 
1828 40 1030 291 
1829 232 1033 167 
1830 166 1033 275 
1831 791 971 274 
1832 246 972 821 
1833 193 924 239 
1834 140 1037 218 
1835 279 1037 141 
1836 583 975 584 
1837 569 969 630 
1838 185 1038 238 
1839 787 968 240 
1840 801 969 280 
1841 159 1039 262 
1842 280 1039 160 
1843 92 1016 255 
1844 2 1041 11 
1845 118 1041 2 
1846 117 1042 3 
1847 3 1042 12 
1848 1 1043 19 
1849 5 1043 1 
1850 18 1044 4 
1851 4 1044 216 
1852 183 1060 182 
1853 288 1054 952 
1854 157 1058 156 
1855 820 967 289 
1856 789 985 458 
1857 595 986 805 
1858 676 942 668 
1859 122 925 269 
1860 647 1005 625 
1861 815 953 858 
1862 591 1048 911 
1863 683 943 685 
1864 675 944 674 
1865 579 959 578 
1866 863 926 309 
1867 827 965 228 
1868 812 954 811 
1869 577 961 626 
1870 907 1038 186 
1871 641 996 642 
1872 921 948 585 
1873 221 927 49 
1874 684 943 683 
1875 700 999 704 
1876 819 964 219 
1877 126 1012 715 
1878 275 1022 165 
1879 331 928 328 
1880 270 957 772 
1881 235 958 771 
1882 816 961 243 
1883 651 1031 238 
1884 623 938 725 
1885 780 996 724 
1886 290 959 786 
1887 704 1007 701 
1888 236 1056 956 
1889 811 954 279 
1890 244 955 818 
1891 280 969 914 
1892 560 980 750 
1893 800 999 598 
1894 858 953 232 
1895 642 1008 640 
1896 218 1028 139 
1897 288 952 822 
1898 898 929 565 
1899 859 930 485 
1900 268 949 826 
1901 256 963 812 
1902 624 937 757 
1903 887 931 423 
1904 300 932 770 
1905 517 933 518 
1906 646 1013 631 
1907 599 1014 830 
1908 834 1015 574 
1909 838 946 237 
1910 51 935 225 
1911 666 953 544 
1912 802 936 287 
1913 259 939 768 
1914 767 937 253 
1915 810 938 230 
1916 263 940 829 
1917 833 941 804 
1918 734 961 577 
1919 799 942 273 
1920 282 943 777 
1921 779 944 247 
1922 327 945 857 
1923 692 946 869 
1924 948 1052 278 
1925 578 959 657 
1926 906 939 553 
1927 224 947 124 
1928 585 948 586 
1929 658 1032 262 
1930 575 949 850 
1931 267 950 195 
1932 855 951 580 
1933 712 952 902 
1934 145 1004 709 
1935 238 1031 184 
1936 635 954 543 
1937 699 955 729 
1938 847 1057 776 
1939 582 956 852 
1940 926 1046 867 
1941 890 979 570 
1942 741 957 740 
1943 573 958 693 
1944 136 960 135 
1945 917 1057 297 
1946 157 1032 663 
1947 945 984 857 
1948 183 1031 662 
1949 188 962 265 
1950 590 963 705 
1951 884 964 571 
1952 262 1032 158 
1953 678 975 583 
1954 650 1016 91 
1955 138 1028 698 
1956 164 1022 656 
1957 715 1012 714 
1958 637 965 883 
1959 88 966 89 
1960 785 975 266 
1961 851 967 600 
1962 639 968 843 
1963 158 1032 157 
1964 764 976 763 
1965 62 970 63 
1966 636 971 539 
1967 567 972 845 
1968 296 934 918 
1969 593 973 713 
1970 856 974 566 
1971 882 976 537 
1972 563 977 878 
1973 184 1031 183 
1974 860 978 594 
1975 570 979 662 
1976 458 985 900 
1977 894 986 595 
1978 561 981 876 
1979 724 996 641 
1980 598 999 700 
1981 881 1014 599 
1982 574 1015 873 
1983 151 982 150 
1984 735 983 669 
1985 857 984 601 
1986 592 1040 881 
1987 591 1045 602 
1988 788 985 789 
1989 805 986 245 
1990 155 987 154 
1991 901 988 761 
1992 679 989 671 
1993 602 990 891 
1994 139 1028 138 
1995 32 991 33 
1996 709 1004 706 
1997 58 992 59 
1998 165 1022 164 
1999 871 993 603 
2000 84 994 85 
2001 718 995 885 
2002 286 996 780 
2003 110 997 111 
2004 91 1016 92 
2005 604 998 897 
2006 220 999 800 
2007 929 1058 663 
2008 41 1000 42 
2009 542 1001 861 
2010 112 1002 113 
2011 861 1003 597 
2012 923 1057 847 
2013 146 1004 145 
2014 46 1005 47 
2015 72 1006 73 
2016 134 1007 133 
2017 98 1008 99 
2018 596 1009 604 
2019 205 1010 204 
2020 105 1011 106 
2021 127 1012 126 
2022 27 1013 28 
2023 830 1014 281 
2024 233 1015 834 
2025 643 1016 650 
2026 717 1017 718 
2027 726 1018 605 
2028 522 1019 525 
2029 910 1040 592 
2030 148 1020 147 
2031 886 1021 606 
2032 945 1049 984 
2033 867 1046 847 
2034 656 1022 648 
2035 587 1023 846 
2036 299 1050 839 
2037 900 1024 588 
2038 548 1025 894 
2039 911 1045 591 
2040 589 1026 752 
2041 876 1027 549 
2042 698 1028 696 
2043 795 1046 926 
2044 93 1029 94 
2045 39 1030 40 
2046 662 1031 651 
2047 663 1032 658 
2048 167 1033 166 
2049 865 1034 628 
2050 773 1036 294 
2051 865 1035 1034 
2052 581 1035 865 
2053 839 1034 272 
2054 1034 1035 272 
2055 272 1035 773 
2056 608 1036 581 
2057 1035 1036 773 
2058 581 1036 1035 
2059 19 1043 917 
2060 918 1042 117 
2061 916 1044 18 
2062 919 1041 118 
2063 141 1037 140 
2064 600 1059 1023 
2065 186 1038 185 
2066 930 1048 893 
2067 160 1039 159 
2068 261 1040 910 
2069 931 1047 892 
2070 264 1055 987 
2071 11 1041 298 
2072 12 1042 299 
2073 775 1043 5 
2074 216 1044 300 
2075 982 1053 259 
2076 283 1045 911 
2077 278 1052 960 
2078 970 1054 288 
2079 966 1056 236 
2080 614 1056 612 
2081 923 1046 795 
2082 615 1054 610 
2083 294 1051 916 
2084 223 1049 920 
2085 847 1046 923 
2086 920 1049 634 
2087 719 1053 720 
2088 753 1055 754 
2089 156 1058 264 
2090 250 1059 820 
2091 182 1060 234 
2092 300 1044 916 
2093 917 1043 775 
2094 298 1041 919 
2095 299 1042 918 
2096 264 1058 929 
2097 910 1047 814 
2098 911 1048 793 
2099 634 1049 945 
2100 984 1049 223 
2101 703 1052 921 
2102 793 1048 930 
2103 814 1047 931 
2104 297 1057 923 
2105 234 1060 979 
2106 1034 1050 628 
2107 839 1050 1034 
2108 1036 1051 294 
2109 608 1051 1036 
2110 612 1056 966 
2111 979 1060 662 
2112 932 1051 608 
2113 628 1050 934 
2114 960 1052 703 
2115 610 1054 970 
2116 987 1055 753 
2117 720 1053 982 
2118 1023 1059 250 
$EndElements
